# xmcd CD database file
#
# Track frame offsets:
#	150
#	25132
#	29435
#	44557
#	67117
#	88282
#	107650
#	128820
#	155595
#	177357
#	183370
#	203510
#	231787
#	256835
#	282647
#
# Disc length: 4266 seconds
#
# Revision: 23
# Processed by: cddbd v1.5.2PL0 Copyright (c) Steve Scherf et al.
# Submitted via: CDex 1.70beta2
#
DISCID=d710a80f
DTITLE=ayumi hamasaki - I am...
DYEAR=2002
DGENRE=Pop
TTITLE0=I am...
TTITLE1=opening Run
TTITLE2=Connected
TTITLE3=UNITE!
TTITLE4=evolution
TTITLE5=Naturally
TTITLE6=NEVER EVER
TTITLE7=still alone
TTITLE8=Daybreak
TTITLE9=taskinlude
TTITLE10=M
TTITLE11=A Song is born
TTITLE12=Dearest
TTITLE13=no more words
TTITLE14=Endless sorrow ~gone with the wind ver.~
EXTD=\n YEAR: 2002
EXTT0=
EXTT1=
EXTT2=
EXTT3=
EXTT4=
EXTT5=
EXTT6=
EXTT7=
EXTT8=
EXTT9=
EXTT10=
EXTT11=
EXTT12=
EXTT13=
EXTT14=
PLAYORDER=
